<?xml version="1.0" encoding="utf-8"?>
<!-- Generator: Adobe Illustrator 22.0.0, SVG Export Plug-In . SVG Version: 6.00 Build 0)  -->
<svg version="1.1" xmlns="http://www.w3.org/2000/svg" xmlns:xlink="http://www.w3.org/1999/xlink" x="0px" y="0px"
	 viewBox="0 0 505 407.7" style="enable-background:new 0 0 505 407.7;" xml:space="preserve">
<style type="text/css">
	.st0{fill:#FFFFFF;}
	.st1{fill-rule:evenodd;clip-rule:evenodd;fill:#FFFFFF;}
</style>
<g id="Capa_1">
	<g>
		<g>
			<g>
				<g>
					<path class="st0" d="M185.6,317c-5.9,0-10.7-1.8-14.2-5.2c-3.5-3.3-5.6-8-5.9-14l-0.1-1.6l1.6-0.5h4.7l0.1,1.4
						c0.3,4.6,1.6,7.9,4,10.3c2.4,2.4,5.7,3.6,9.9,3.6c3.7,0,6.8-0.9,9.3-2.7c2.7-1.9,4-4.5,4-7.8c0-3.5-1.3-5.9-4.1-7.7
						c-1-0.7-3.6-1.9-10.2-3.6c-0.3-0.1-0.4-0.2-0.9-0.3c-6.6-1.9-10.6-3.5-12.5-5.3c-2.9-2.7-4.4-6.1-4.4-10.3
						c0-5.2,1.9-9.2,5.5-12c3.2-2.6,7.4-3.9,12.5-3.9c5.5,0,10,1.5,13.3,4.6c3.5,3.1,5.4,7.4,5.7,12.9l0.1,1.6l-1.5,0.5h-4.7l0-1.5
						c-0.1-4.2-1.3-7.1-3.7-9.1c-2.4-2-5.5-3-9.2-3c-3.5,0-6.3,0.9-8.4,2.5c-2.1,1.7-3.2,4.2-3.2,7.4c0,2.2,0.9,4.1,2.7,5.8
						c0.9,0.9,3.4,2.2,9.7,3.9c0.6,0.2,0.9,0.2,1.3,0.4c5.8,1.5,9.8,3,12.1,4.5c4.4,2.8,6.6,6.8,6.6,12c0,5.6-2,10-6,13.1
						C195.7,315.6,191.1,317,185.6,317L185.6,317z"/>
				</g>
				<g>
					<rect x="211.2" y="258.5" class="st0" width="6.3" height="57.4"/>
				</g>
				<g>
					<polygon class="st0" points="237.9,315.9 237.9,264.7 221.3,264.7 221.3,258.5 261,258.5 261,264.7 244.3,264.7 244.3,315.9 
											"/>
				</g>
				<g>
					<path class="st0" d="M284.9,317c-6.7,0-11.9-2-15.7-5.9c-3.7-3.7-5.5-9-5.5-15.8v-36.7h6.3v35.6c0,11.5,4.7,16.9,14.9,16.9
						c5.1,0,8.9-1.5,11.4-4.5c2.3-2.8,3.5-7,3.5-12.4v-35.6h6.3v36.7c0,6.7-1.9,12-5.5,15.8C296.8,315,291.5,317,284.9,317
						L284.9,317z"/>
				</g>
				<g>
					<path class="st0" d="M345.1,315.9v-13.9c0-1.4,0-2.6,0-3.4c0-0.8-0.1-1.4-0.1-1.7c-0.4-2.5-1.5-4.3-3.1-5.1
						c-1-0.5-3.1-1.1-7.3-1.1h-14.2v25.3h-6.4v-57.4h19.7c6.2,0,10.9,0.9,14,2.8c4.1,2.6,6.2,7,6.2,13.1c0,5.9-2.3,10.4-6.8,13.1
						c2.2,1.6,4.1,4.3,4.6,9.1c0,0.1,0.1,0.3,0.1,7.1l0.1,12.1H345.1z M334.9,284.5c8.7,0,12.6-3,12.6-9.8c0-5.7-2.3-8.7-7.4-9.6
						c-0.6-0.1-1.5-0.2-2.5-0.2c-1.1-0.1-2.4-0.1-3.9-0.1h-13.3v19.8H334.9z"/>
				</g>
			</g>
			<g>
				<path class="st0" d="M24.4,345.8c0.1,2.3,0.9,4.2,2.3,5.6c1.4,1.4,3.3,2.1,5.6,2.1c2.1,0,3.8-0.5,5.2-1.6
					c1.6-1.1,2.4-2.7,2.4-4.7c0-2.1-0.8-3.6-2.5-4.6c-0.8-0.5-2.6-1.2-5.4-1.9c0,0-0.2-0.1-0.5-0.1c-3.1-0.9-5-1.7-5.8-2.4
					c-1.3-1.1-1.9-2.6-1.9-4.4c0-2.3,0.8-4,2.4-5.2c1.5-1.2,3.3-1.7,5.7-1.7c2.5,0,4.5,0.7,6,2c1.6,1.4,2.4,3.3,2.5,5.8h-1.2
					c0-2.2-0.8-3.8-2.2-5.1c-1.4-1.2-3.1-1.7-5.2-1.7c-2,0-3.6,0.5-4.8,1.5c-1.3,1-2,2.5-2,4.5c0,1.4,0.5,2.6,1.6,3.6
					c0.8,0.7,2.6,1.5,5.3,2.2c0.1,0,0.1,0,0.2,0.1c0.1,0,0.2,0,0.3,0.1c2.9,0.8,4.8,1.5,5.9,2.2c1.9,1.2,2.8,2.9,2.8,5.2
					c0,2.5-0.9,4.4-2.6,5.8c-1.6,1.2-3.7,1.9-6.2,1.9c-2.7,0-4.8-0.8-6.4-2.3c-1.6-1.5-2.5-3.6-2.7-6.4H24.4z"/>
				<path class="st0" d="M44.7,326.9c0.5,0,0.8,0.6,0.8,1.7c0,1.2-0.3,1.8-0.8,1.8c-0.5,0-0.8-0.6-0.8-1.8
					C43.9,327.5,44.2,326.9,44.7,326.9z M44.2,334.6h1.2v19.3h-1.2V334.6z"/>
				<path class="st0" d="M55.9,353.3c1.6,0,2.9-0.3,3.9-1c1.2-0.8,1.8-1.9,1.8-3.4c0-1.8-1.3-3-3.8-3.7c-0.1,0-0.2-0.1-0.4-0.1
					c-0.2-0.1-0.4-0.1-0.6-0.1c-3.1-0.8-5.2-1.6-6.1-2.3c-1-0.8-1.6-1.9-1.6-3.3c0-1.7,0.7-3,2.2-3.9c1.2-0.8,2.7-1.2,4.5-1.2
					c1.8,0,3.3,0.5,4.4,1.4c1.2,1,1.9,2.4,2.1,4.1h-1.1c-0.4-3-2.2-4.5-5.5-4.5c-1.4,0-2.5,0.3-3.5,0.9c-1.2,0.7-1.7,1.7-1.7,3
					c0,1.9,2,3.4,5.9,4.4c0.1,0,0.2,0.1,0.4,0.1c2,0.5,3.4,1.1,4.2,1.6c1.3,0.9,2,2.1,2,3.7c0,1.7-0.7,3.1-2.2,4.1
					c-1.3,0.9-2.9,1.3-4.7,1.3c-2.1,0-3.7-0.5-5.1-1.5c-1.4-1.1-2.1-2.7-2.3-4.7h1.2C50.3,351.6,52.4,353.3,55.9,353.3z"/>
				<path class="st0" d="M66.2,329.3v5.3h3.9v1h-3.9v18.3H65v-24.6H66.2z"/>
				<path class="st0" d="M78.7,354.4c-2.8,0-4.8-1-6.3-3c-1.3-1.8-1.9-4.2-1.9-7c0-2.9,0.6-5.2,1.9-7c1.4-2.1,3.5-3.1,6.3-3.1
					c2.7,0,4.8,0.9,6.2,2.8c1.3,1.7,1.9,3.9,1.9,6.7v0.7H71.8v0.3c0,2.4,0.6,4.4,1.7,6c1.3,1.8,3,2.7,5.3,2.7c3.1,0,5.2-1.5,6.4-4.4
					l1,0.5c-0.5,1.3-1.3,2.4-2.3,3.2C82.3,353.9,80.6,354.4,78.7,354.4z M85.6,343.3c0-2.3-0.5-4.1-1.6-5.6c-1.2-1.7-2.9-2.5-5-2.5
					c-2.2,0-4,0.8-5.2,2.4c-1.1,1.5-1.7,3.3-1.9,5.7H85.6z"/>
				<path class="st0" d="M89.6,334.6h1.2v3.2c1.3-2.4,3.3-3.6,6-3.6c3.1,0,5,1.3,5.7,3.9c1.3-2.6,3.4-3.9,6.3-3.9
					c4.1,0,6.1,2.3,6.1,6.9v12.8h-1.2v-11.6c0-2.2-0.2-3.7-0.6-4.5c-0.7-1.7-2.2-2.5-4.4-2.5c-2.3,0-3.9,0.8-4.9,2.5
					c-0.7,1.3-1.1,3.2-1.1,5.7v10.4h-1.2v-11.6c0-2.2-0.2-3.7-0.6-4.5c-0.7-1.7-2.2-2.5-4.4-2.5c-3.3,0-5.2,1.6-5.8,4.9
					c-0.1,0.4-0.1,0.8-0.1,1.4c0,0.6-0.1,1.2-0.1,1.9v10.4h-1.2V334.6z"/>
				<path class="st0" d="M126.4,354.4c-2.8,0-5-1-6.5-3c-1.3-1.8-2-4.2-2-7.1c0-3,0.7-5.3,2-7.1c1.5-2,3.7-3,6.5-3
					c3.6,0,6,1.6,7.3,4.8v-4.4h1.2v19.3h-1.2v-4.2C132.4,352.8,130,354.4,126.4,354.4z M120.7,350.6c1.3,1.9,3.2,2.8,5.7,2.8
					c2.5,0,4.4-0.9,5.6-2.8c1.1-1.6,1.7-3.7,1.7-6.3c0-2.6-0.6-4.7-1.7-6.3c-1.3-1.9-3.1-2.8-5.6-2.8c-2.5,0-4.3,0.9-5.6,2.8
					c-1.1,1.6-1.7,3.7-1.7,6.3C119.1,346.9,119.6,349,120.7,350.6z"/>
				<path class="st0" d="M163.2,353.9H162v-4.3c-1.3,3.2-3.7,4.8-7.3,4.8c-2.9,0-5-1-6.5-3c-1.3-1.8-2-4.2-2-7.1
					c0-2.9,0.7-5.3,2-7.1c1.5-2,3.7-3,6.5-3c3.7,0,6.1,1.5,7.3,4.6v-11.6h1.2V353.9z M160.3,338c-1.3-1.9-3.1-2.8-5.6-2.8
					c-2.5,0-4.3,0.9-5.6,2.8c-1.1,1.6-1.7,3.7-1.7,6.3c0,2.6,0.6,4.7,1.7,6.3c1.3,1.9,3.2,2.8,5.7,2.8c2.5,0,4.4-0.9,5.6-2.8
					c1.1-1.6,1.7-3.7,1.7-6.3C162,341.7,161.4,339.6,160.3,338z"/>
				<path class="st0" d="M174.2,354.4c-2.8,0-4.8-1-6.3-3c-1.3-1.8-1.9-4.2-1.9-7c0-2.9,0.6-5.2,1.9-7c1.4-2.1,3.5-3.1,6.3-3.1
					c2.7,0,4.8,0.9,6.2,2.8c1.3,1.7,1.9,3.9,1.9,6.7v0.7h-15.1v0.3c0,2.4,0.6,4.4,1.7,6c1.3,1.8,3,2.7,5.3,2.7
					c3.1,0,5.2-1.5,6.4-4.4l1,0.5c-0.5,1.3-1.3,2.4-2.3,3.2C177.8,353.9,176.2,354.4,174.2,354.4z M181.1,343.3
					c0-2.3-0.5-4.1-1.6-5.6c-1.2-1.7-2.9-2.5-5-2.5c-2.2,0-4,0.8-5.2,2.4c-1.1,1.5-1.7,3.3-1.9,5.7H181.1z"/>
				<path class="st0" d="M194.2,327.2h1.2v26.7h-1.2V327.2z"/>
				<path class="st0" d="M199.9,334.6h1.2v3.2c1.2-2.4,3.4-3.6,6.5-3.6c4.4,0,6.6,2.3,6.6,6.9v12.8h-1.2v-12.4
					c0-2.1-0.4-3.6-1.1-4.5c-0.9-1.1-2.3-1.7-4.3-1.7c-3.6,0-5.8,1.6-6.4,4.9c-0.1,0.4-0.1,0.8-0.1,1.4c0,0.6-0.1,1.2-0.1,2v10.3
					h-1.2V334.6z"/>
				<path class="st0" d="M234.1,353.9H233v-4.3c-1.3,3.2-3.7,4.8-7.3,4.8c-2.9,0-5-1-6.5-3c-1.3-1.8-2-4.2-2-7.1
					c0-2.9,0.7-5.3,2-7.1c1.5-2,3.7-3,6.5-3c3.7,0,6.1,1.5,7.3,4.6v-11.6h1.2V353.9z M231.3,338c-1.3-1.9-3.1-2.8-5.6-2.8
					c-2.5,0-4.3,0.9-5.6,2.8c-1.1,1.6-1.7,3.7-1.7,6.3c0,2.6,0.6,4.7,1.7,6.3c1.3,1.9,3.2,2.8,5.7,2.8c2.5,0,4.4-0.9,5.6-2.8
					c1.1-1.6,1.7-3.7,1.7-6.3C233,341.7,232.4,339.6,231.3,338z"/>
				<path class="st0" d="M238.6,326.9c0.5,0,0.8,0.6,0.8,1.7c0,1.2-0.3,1.8-0.8,1.8c-0.5,0-0.8-0.6-0.8-1.8
					C237.9,327.5,238.1,326.9,238.6,326.9z M238.1,334.6h1.2v19.3h-1.2V334.6z"/>
				<path class="st0" d="M255.9,352.6c-1.4,1.2-3.1,1.7-5.2,1.7c-2.8,0-4.9-1-6.4-3c-1.3-1.8-2-4.2-2-7c0-2.9,0.7-5.3,2-7.1
					c1.5-2,3.6-3,6.5-3c3.5,0,5.8,1.4,6.9,4.2l-1,0.7c-0.3-0.9-0.9-1.8-1.8-2.5c-1.1-0.9-2.5-1.3-4.1-1.3c-2.5,0-4.4,0.9-5.6,2.8
					c-1.1,1.6-1.7,3.7-1.7,6.3c0,2.6,0.6,4.7,1.7,6.3c1.3,1.9,3.2,2.8,5.6,2.8c1.5,0,2.8-0.4,4-1.2c1.1-0.8,1.9-2,2.2-3.5l1,0.6
					C257.5,350.7,256.8,351.8,255.9,352.6z"/>
				<path class="st0" d="M268.8,354.4c-2.8,0-5-1-6.5-3c-1.3-1.8-2-4.2-2-7.1c0-3,0.7-5.3,2-7.1c1.5-2,3.7-3,6.5-3
					c3.6,0,6,1.6,7.3,4.8v-4.4h1.2v19.3h-1.2v-4.2C274.9,352.8,272.5,354.4,268.8,354.4z M263.2,350.6c1.3,1.9,3.2,2.8,5.7,2.8
					c2.5,0,4.4-0.9,5.6-2.8c1.1-1.6,1.7-3.7,1.7-6.3c0-2.6-0.6-4.7-1.7-6.3c-1.3-1.9-3.1-2.8-5.6-2.8c-2.5,0-4.3,0.9-5.6,2.8
					c-1.1,1.6-1.7,3.7-1.7,6.3C261.5,346.9,262.1,349,263.2,350.6z"/>
				<path class="st0" d="M297.2,353.9h-1.2v-4.3c-1.3,3.2-3.7,4.8-7.3,4.8c-2.9,0-5-1-6.5-3c-1.3-1.8-2-4.2-2-7.1
					c0-2.9,0.7-5.3,2-7.1c1.5-2,3.7-3,6.5-3c3.7,0,6.1,1.5,7.3,4.6v-11.6h1.2V353.9z M294.4,338c-1.3-1.9-3.1-2.8-5.6-2.8
					c-2.5,0-4.3,0.9-5.6,2.8c-1.1,1.6-1.7,3.7-1.7,6.3c0,2.6,0.6,4.7,1.7,6.3c1.3,1.9,3.2,2.8,5.7,2.8c2.5,0,4.4-0.9,5.6-2.8
					c1.1-1.6,1.7-3.7,1.7-6.3C296.1,341.7,295.5,339.6,294.4,338z"/>
				<path class="st0" d="M302.2,337.3c1.5-2,3.6-3,6.5-3c2.8,0,5,1,6.5,3c1.3,1.8,2,4.1,2,7.1c0,2.9-0.7,5.3-2,7.1
					c-1.5,2-3.7,3-6.5,3c-2.8,0-5-1-6.5-3c-1.3-1.8-2-4.2-2-7.1C300.2,341.4,300.9,339,302.2,337.3z M303,350.6
					c1.3,1.9,3.2,2.8,5.6,2.8c2.5,0,4.3-0.9,5.7-2.8c1.1-1.6,1.7-3.7,1.7-6.3c0-2.6-0.6-4.7-1.7-6.3c-1.3-1.9-3.2-2.8-5.7-2.8
					c-2.5,0-4.4,0.9-5.6,2.8c-1.1,1.6-1.7,3.7-1.7,6.3C301.4,346.9,301.9,349,303,350.6z"/>
				<path class="st0" d="M320.1,334.6h1.2v3.2c1-2.1,3.1-3.1,6.4-3.1l-0.7,1c-0.9,0-1.6,0.1-2,0.2c-0.8,0.2-1.7,0.9-2.6,1.9
					c-0.7,0.8-1.1,1.9-1.1,3.2v12.8h-1.2V334.6z"/>
				<path class="st0" d="M335.8,354.4c-2.8,0-4.8-1-6.3-3c-1.3-1.8-1.9-4.2-1.9-7c0-2.9,0.6-5.2,1.9-7c1.4-2.1,3.5-3.1,6.3-3.1
					c2.7,0,4.8,0.9,6.2,2.8c1.3,1.7,1.9,3.9,1.9,6.7v0.7h-15.1v0.3c0,2.4,0.6,4.4,1.7,6c1.3,1.8,3,2.7,5.3,2.7
					c3.1,0,5.2-1.5,6.4-4.4l1,0.5c-0.5,1.3-1.3,2.4-2.3,3.2C339.4,353.9,337.7,354.4,335.8,354.4z M342.6,343.3
					c0-2.3-0.5-4.1-1.6-5.6c-1.2-1.7-2.9-2.5-5-2.5c-2.2,0-4,0.8-5.2,2.4c-1.1,1.5-1.7,3.3-1.9,5.7H342.6z"/>
				<path class="st0" d="M353.3,353.3c1.6,0,2.9-0.3,3.9-1c1.2-0.8,1.8-1.9,1.8-3.4c0-1.8-1.3-3-3.8-3.7c-0.1,0-0.2-0.1-0.4-0.1
					c-0.2-0.1-0.4-0.1-0.6-0.1c-3.1-0.8-5.2-1.6-6.1-2.3c-1-0.8-1.6-1.9-1.6-3.3c0-1.7,0.7-3,2.2-3.9c1.2-0.8,2.7-1.2,4.5-1.2
					c1.8,0,3.3,0.5,4.4,1.4c1.2,1,1.9,2.4,2.1,4.1h-1.2c-0.4-3-2.2-4.5-5.5-4.5c-1.4,0-2.5,0.3-3.5,0.9c-1.2,0.7-1.7,1.7-1.7,3
					c0,1.9,2,3.4,5.9,4.4c0.1,0,0.2,0.1,0.4,0.1c2,0.5,3.4,1.1,4.2,1.6c1.3,0.9,2,2.1,2,3.7c0,1.7-0.7,3.1-2.2,4.1
					c-1.3,0.9-2.9,1.3-4.7,1.3c-2.1,0-3.7-0.5-5.1-1.5c-1.4-1.1-2.1-2.7-2.3-4.7h1.2C347.8,351.6,349.8,353.3,353.3,353.3z"/>
				<path class="st0" d="M378,328.3h-8.3v-1.2h17.9v1.2h-8.3v25.6H378V328.3z"/>
				<path class="st0" d="M398.7,353.9h-1.2v-3c-1.2,2.3-3.4,3.5-6.5,3.5c-4.4,0-6.6-2.3-6.6-6.9v-12.9h1.2v12.5
					c0,2.1,0.4,3.6,1.2,4.5c0.8,1.1,2.3,1.7,4.3,1.7c3.6,0,5.8-1.6,6.4-4.9c0.1-0.4,0.1-0.8,0.1-1.4c0-0.6,0.1-1.2,0.1-2v-10.4h1.2
					V353.9z"/>
				<path class="st0" d="M402.6,334.6h1.2v3.2c1-2.1,3.1-3.1,6.4-3.1l-0.7,1c-0.9,0-1.6,0.1-2,0.2c-0.8,0.2-1.7,0.9-2.6,1.9
					c-0.7,0.8-1.1,1.9-1.1,3.2v12.8h-1.2V334.6z"/>
				<path class="st0" d="M413.5,326.2h2l-3.8,6h-2L413.5,326.2z M411.1,334.6h1.2v19.3h-1.2V334.6z"/>
				<path class="st0" d="M422.9,353.3c1.6,0,2.9-0.3,3.9-1c1.2-0.8,1.8-1.9,1.8-3.4c0-1.8-1.3-3-3.8-3.7c-0.1,0-0.2-0.1-0.4-0.1
					c-0.2-0.1-0.4-0.1-0.7-0.1c-3.1-0.8-5.2-1.6-6.1-2.3c-1-0.8-1.6-1.9-1.6-3.3c0-1.7,0.7-3,2.2-3.9c1.2-0.8,2.7-1.2,4.5-1.2
					c1.8,0,3.3,0.5,4.4,1.4c1.2,1,1.9,2.4,2.1,4.1H428c-0.4-3-2.2-4.5-5.5-4.5c-1.4,0-2.5,0.3-3.5,0.9c-1.2,0.7-1.7,1.7-1.7,3
					c0,1.9,2,3.4,5.9,4.4c0.1,0,0.2,0.1,0.4,0.1c2,0.5,3.4,1.1,4.2,1.6c1.3,0.9,2,2.1,2,3.7c0,1.7-0.7,3.1-2.2,4.1
					c-1.3,0.9-2.9,1.3-4.7,1.3c-2.1,0-3.7-0.5-5.1-1.5c-1.4-1.1-2.1-2.7-2.3-4.7h1.2C417.3,351.6,419.4,353.3,422.9,353.3z"/>
				<path class="st0" d="M433.2,329.3v5.3h3.9v1h-3.9v18.3H432v-24.6H433.2z"/>
				<path class="st0" d="M439.1,326.9c0.5,0,0.8,0.6,0.8,1.7c0,1.2-0.3,1.8-0.8,1.8c-0.5,0-0.8-0.6-0.8-1.8
					C438.4,327.5,438.6,326.9,439.1,326.9z M438.6,334.6h1.2v19.3h-1.2V334.6z"/>
				<path class="st0" d="M456.4,352.6c-1.4,1.2-3.1,1.7-5.2,1.7c-2.8,0-4.9-1-6.4-3c-1.3-1.8-2-4.2-2-7c0-2.9,0.7-5.3,2-7.1
					c1.5-2,3.6-3,6.5-3c3.5,0,5.8,1.4,6.9,4.2l-1,0.7c-0.3-0.9-0.9-1.8-1.8-2.5c-1.1-0.9-2.5-1.3-4.1-1.3c-2.5,0-4.4,0.9-5.6,2.8
					c-1.1,1.6-1.7,3.7-1.7,6.3c0,2.6,0.6,4.7,1.7,6.3c1.3,1.9,3.2,2.8,5.6,2.8c1.5,0,2.8-0.4,4-1.2c1.1-0.8,1.9-2,2.3-3.5l1,0.6
					C458,350.7,457.3,351.8,456.4,352.6z"/>
				<path class="st0" d="M462.8,337.3c1.5-2,3.6-3,6.5-3c2.8,0,5,1,6.5,3c1.3,1.8,2,4.1,2,7.1c0,2.9-0.7,5.3-2,7.1
					c-1.5,2-3.7,3-6.5,3c-2.8,0-5-1-6.5-3c-1.3-1.8-2-4.2-2-7.1C460.7,341.4,461.4,339,462.8,337.3z M463.6,350.6
					c1.3,1.9,3.2,2.8,5.6,2.8c2.5,0,4.3-0.9,5.7-2.8c1.1-1.6,1.7-3.7,1.7-6.3c0-2.6-0.6-4.7-1.7-6.3c-1.3-1.9-3.2-2.8-5.7-2.8
					c-2.5,0-4.4,0.9-5.6,2.8c-1.1,1.6-1.7,3.7-1.7,6.3C461.9,346.9,462.5,349,463.6,350.6z"/>
				<path class="st0" d="M487.3,353.3c1.6,0,2.9-0.3,3.9-1c1.2-0.8,1.8-1.9,1.8-3.4c0-1.8-1.3-3-3.8-3.7c-0.1,0-0.2-0.1-0.4-0.1
					c-0.2-0.1-0.4-0.1-0.6-0.1c-3.1-0.8-5.2-1.6-6.1-2.3c-1-0.8-1.6-1.9-1.6-3.3c0-1.7,0.7-3,2.2-3.9c1.2-0.8,2.7-1.2,4.5-1.2
					c1.8,0,3.3,0.5,4.4,1.4c1.2,1,1.9,2.4,2.1,4.1h-1.2c-0.4-3-2.2-4.5-5.5-4.5c-1.4,0-2.5,0.3-3.5,0.9c-1.2,0.7-1.7,1.7-1.7,3
					c0,1.9,2,3.4,5.9,4.4c0.1,0,0.2,0.1,0.4,0.1c2,0.5,3.4,1.1,4.2,1.6c1.3,0.9,2,2.1,2,3.7c0,1.7-0.7,3.1-2.2,4.1
					c-1.3,0.9-2.9,1.3-4.7,1.3c-2.1,0-3.7-0.5-5.1-1.5c-1.4-1.1-2.1-2.7-2.3-4.7h1.2C481.7,351.6,483.8,353.3,487.3,353.3z"/>
			</g>
			<g>
				<path class="st0" d="M128.3,365.2h1.8l9.7,18.8l9.4-18.8h1.7v26.7h-1.1v-25.2l-9.7,18.8h-0.7l-10-18.8v25.2h-1.1V365.2z"/>
				<path class="st0" d="M162.8,392.4c-2.8,0-4.8-1-6.3-3c-1.3-1.8-1.9-4.2-1.9-7c0-2.9,0.6-5.2,1.9-7c1.4-2.1,3.5-3.1,6.3-3.1
					c2.7,0,4.8,0.9,6.2,2.8c1.3,1.7,1.9,3.9,1.9,6.7v0.7h-15.1v0.3c0,2.4,0.6,4.4,1.7,6c1.3,1.8,3,2.8,5.3,2.8
					c3.1,0,5.2-1.5,6.4-4.4l1,0.5c-0.5,1.3-1.3,2.4-2.3,3.2C166.4,391.9,164.7,392.4,162.8,392.4z M169.6,381.3
					c0-2.3-0.5-4.1-1.6-5.6c-1.2-1.7-2.9-2.5-5-2.5c-2.2,0-4,0.8-5.2,2.4c-1.1,1.5-1.7,3.3-1.9,5.7H169.6z"/>
				<path class="st0" d="M190.2,391.9H189v-4.3c-1.3,3.2-3.7,4.8-7.3,4.8c-2.9,0-5-1-6.5-3c-1.3-1.8-2-4.2-2-7.1
					c0-2.9,0.7-5.3,2-7.1c1.5-2,3.7-3,6.5-3c3.7,0,6.1,1.5,7.3,4.6v-11.6h1.2V391.9z M187.3,376.1c-1.3-1.9-3.1-2.8-5.6-2.8
					c-2.5,0-4.3,0.9-5.6,2.8c-1.1,1.6-1.7,3.7-1.7,6.3c0,2.6,0.6,4.7,1.7,6.3c1.3,1.9,3.2,2.8,5.7,2.8c2.5,0,4.4-0.9,5.6-2.8
					c1.1-1.6,1.7-3.7,1.7-6.3C189,379.8,188.4,377.7,187.3,376.1z"/>
				<path class="st0" d="M201.6,392.4c-2.8,0-4.8-1-6.3-3c-1.3-1.8-1.9-4.2-1.9-7c0-2.9,0.6-5.2,1.9-7c1.4-2.1,3.5-3.1,6.3-3.1
					c2.7,0,4.8,0.9,6.2,2.8c1.3,1.7,1.9,3.9,1.9,6.7v0.7h-15.1v0.3c0,2.4,0.6,4.4,1.7,6c1.3,1.8,3,2.8,5.3,2.8
					c3.1,0,5.2-1.5,6.4-4.4l1,0.5c-0.5,1.3-1.3,2.4-2.3,3.2C205.2,391.9,203.5,392.4,201.6,392.4z M208.4,381.3
					c0-2.3-0.5-4.1-1.6-5.6c-1.2-1.7-2.9-2.5-5-2.5c-2.2,0-4,0.8-5.2,2.4c-1.1,1.5-1.7,3.3-1.9,5.7H208.4z"/>
				<path class="st0" d="M212.9,365.2h1.2v26.7h-1.2V365.2z"/>
				<path class="st0" d="M218.5,365.2h1.2v26.7h-1.2V365.2z"/>
				<path class="st0" d="M226.4,364.3h2l-3.8,6h-2L226.4,364.3z M224,372.6h1.2v19.3H224V372.6z"/>
				<path class="st0" d="M229.5,372.6h1.2v3.2c1.2-2.4,3.4-3.6,6.5-3.6c4.4,0,6.6,2.3,6.6,6.9v12.8h-1.2v-12.4
					c0-2.1-0.4-3.6-1.1-4.5c-0.9-1.1-2.3-1.7-4.3-1.7c-3.6,0-5.8,1.6-6.4,4.9c-0.1,0.4-0.1,0.8-0.1,1.4c0,0.6-0.1,1.2-0.1,2v10.3
					h-1.2V372.6z"/>
				<path class="st0" d="M246.7,381.8h9.9v1h-9.9V381.8z"/>
				<path class="st0" d="M267.2,365.2h1.4l10.2,26.7h-1.2l-3.5-9.1h-12.5l-3.5,9.1h-1.2L267.2,365.2z M273.6,381.7l-5.7-15.1
					l-5.8,15.1H273.6z"/>
				<path class="st0" d="M280,372.6h1.2v3.2c1.2-2.4,3.4-3.6,6.5-3.6c4.4,0,6.6,2.3,6.6,6.9v12.8h-1.2v-12.4c0-2.1-0.4-3.6-1.1-4.5
					c-0.9-1.1-2.3-1.7-4.3-1.7c-3.6,0-5.8,1.6-6.4,4.9c-0.1,0.4-0.1,0.8-0.1,1.4c0,0.6-0.1,1.2-0.1,2v10.3H280V372.6z"/>
				<path class="st0" d="M298.8,367.4v5.3h3.9v1h-3.9v18.3h-1.2v-24.6H298.8z"/>
				<path class="st0" d="M305.1,364.9c0.5,0,0.8,0.6,0.8,1.7c0,1.2-0.3,1.8-0.8,1.8c-0.5,0-0.8-0.6-0.8-1.8
					C304.3,365.5,304.6,364.9,305.1,364.9z M304.5,372.6h1.2v19.3h-1.2V372.6z"/>
				<path class="st0" d="M311,375.3c1.5-2,3.6-3,6.5-3c2.8,0,5,1,6.5,3c1.3,1.8,2,4.1,2,7.1c0,2.9-0.7,5.3-2,7.1c-1.5,2-3.7,3-6.5,3
					c-2.8,0-5-1-6.5-3c-1.3-1.8-2-4.2-2-7.1C309,379.4,309.7,377.1,311,375.3z M311.9,388.6c1.3,1.9,3.2,2.8,5.6,2.8
					c2.5,0,4.3-0.9,5.7-2.8c1.1-1.6,1.7-3.7,1.7-6.3c0-2.6-0.6-4.7-1.7-6.3c-1.3-1.9-3.2-2.8-5.7-2.8c-2.5,0-4.4,0.9-5.6,2.8
					c-1.1,1.6-1.7,3.7-1.7,6.3C310.2,384.9,310.8,387,311.9,388.6z"/>
				<path class="st0" d="M336.9,392.4c-2.8,0-5-1-6.5-3c-1.3-1.8-2-4.2-2-7.1c0-3,0.7-5.3,2-7.1c1.5-2,3.7-3,6.5-3
					c3.6,0,6,1.6,7.3,4.8v-4.4h1.2v26.9h-1.2v-11.8C343,390.9,340.5,392.4,336.9,392.4z M331.3,388.6c1.3,1.9,3.2,2.8,5.7,2.8
					c2.5,0,4.4-0.9,5.6-2.8c1.1-1.6,1.7-3.7,1.7-6.3c0-2.6-0.6-4.7-1.7-6.3c-1.3-1.9-3.1-2.8-5.6-2.8c-2.5,0-4.3,0.9-5.6,2.8
					c-1.1,1.6-1.7,3.7-1.7,6.3C329.6,384.9,330.2,387,331.3,388.6z"/>
				<path class="st0" d="M363.8,391.9h-1.2v-3c-1.2,2.3-3.4,3.5-6.5,3.5c-4.4,0-6.6-2.3-6.6-6.9v-12.9h1.2v12.5
					c0,2.1,0.4,3.6,1.2,4.5c0.8,1.1,2.3,1.7,4.3,1.7c3.6,0,5.8-1.6,6.4-4.9c0.1-0.4,0.1-0.8,0.1-1.4c0-0.6,0.1-1.2,0.1-2v-10.4h1.2
					V391.9z"/>
				<path class="st0" d="M368.6,364.9c0.5,0,0.8,0.6,0.8,1.7c0,1.2-0.3,1.8-0.8,1.8c-0.5,0-0.8-0.6-0.8-1.8
					C367.9,365.5,368.1,364.9,368.6,364.9z M368.1,372.6h1.2v19.3h-1.2V372.6z"/>
				<path class="st0" d="M381.2,392.4c-2.8,0-5-1-6.5-3c-1.3-1.8-2-4.2-2-7.1c0-3,0.7-5.3,2-7.1c1.5-2,3.7-3,6.5-3
					c3.6,0,6,1.6,7.3,4.8v-4.4h1.2v19.3h-1.2v-4.2C387.2,390.9,384.8,392.4,381.2,392.4z M375.5,388.6c1.3,1.9,3.2,2.8,5.7,2.8
					c2.5,0,4.4-0.9,5.6-2.8c1.1-1.6,1.7-3.7,1.7-6.3c0-2.6-0.6-4.7-1.7-6.3c-1.3-1.9-3.1-2.8-5.6-2.8c-2.5,0-4.3,0.9-5.6,2.8
					c-1.1,1.6-1.7,3.7-1.7,6.3C373.8,384.9,374.4,387,375.5,388.6z"/>
			</g>
		</g>
		<g>
			<path class="st0" d="M260.5,216.6l95-35.3l-92.1,42.3c-0.2,3.2-2.2,6.3-5.4,7.6c-4.5,1.8-9.6-0.3-11.4-4.8
				c-1.8-4.5,0.3-9.6,4.8-11.4C254.6,213.8,258.1,214.5,260.5,216.6z"/>
			<path class="st0" d="M209,54.8l-6.1-10.3l0.4-2l3.2,0.8l8.5,9l21-5.7l-10.7-28.5l0-3.8l2.6,1l24.7,28.1l22.8-5.9
				c0,0,11.7-2.9,11.7,1.6c0.1,4.6-8.9,6.1-9.7,6.1c-0.8,0-24,5.7-24,5.7l-9.8,37.5l-3.4,0.4l-3.1-34l-20.6,3.5l-4.6,12.6l-3,0.6
				l0.4-12.9l-2.4,0l-0.4-2.2L209,54.8z"/>
			<g>
				<path class="st1" d="M194.5,58.1c2.5-0.8,5.1,0.2,5.7,3c1.1,5.2-6.5,7.3-8.3,3.2C190.6,61.4,191.4,59.1,194.5,58.1z"/>
				<path class="st1" d="M178.3,67c6.6-2.6,7.7,6.9,2.8,8C176.4,76.2,173.1,69,178.3,67z"/>
				<path class="st1" d="M163.9,77.1c2.9-0.9,4.7,0.6,5.3,2.5c2,6.1-8.4,8.9-8.5,1.5C160.7,79.3,161.5,77.8,163.9,77.1z"/>
				<path class="st1" d="M152.4,88.6c9.9,3.7-4,14.2-5.4,5.1C146.6,90.7,148.4,88.7,152.4,88.6z"/>
				<path class="st1" d="M137.4,102.3c6.7-2.5,7.9,8.2,1.4,8.2C134.5,110.6,133,104,137.4,102.3z"/>
				<path class="st1" d="M127.2,116.5c2.2-0.6,5.3,0.6,5.2,4.2c-0.1,5.2-8.4,5.8-8.7,0C123.6,119.3,124,117.3,127.2,116.5z"/>
				<path class="st1" d="M114.7,138.3c-2.4-7.5,7.2-8.3,8.3-3.2C124,139.7,117.5,142.3,114.7,138.3z"/>
				<path class="st1" d="M109.2,148.6c6.7-2.9,8.2,8.1,1.7,8.2C106.6,156.9,105,150.4,109.2,148.6z"/>
				<path class="st1" d="M103.4,165.7c4.3-1.7,8,3,5.3,6.5c-1.9,2.6-8,2.9-8-3C100.7,168,101.2,166.6,103.4,165.7z"/>
				<path class="st1" d="M98.8,183.5c7.3-3.5,8,7.4,2.6,8.1C98.1,192,93.8,185.9,98.8,183.5z"/>
				<path class="st1" d="M97.2,201.2c2.9-1,6.3,0.4,5.9,4.7c-0.4,4.6-8.1,5-8.8-0.2C94,203.3,95,202,97.2,201.2z"/>
			</g>
			<path class="st0" d="M391.3,161.4c-21.2-51.9-72.1-88.5-131.7-88.5c-78.6,0-142.2,63.7-142.2,142.2c0,2.3,0.1,4.6,0.2,6.8h34.1
				c-0.1-2.3-0.2-4.5-0.2-6.8c0-59.8,48.4-108.2,108.2-108.2c45.7,0,84.8,28.4,100.6,68.6L391.3,161.4z"/>
			<path class="st0" d="M362.4,181.7c3.4,10.5,5.3,21.8,5.3,33.5c0,2.3-0.1,4.6-0.2,6.8h34.1c0.1-2.3,0.2-4.5,0.2-6.8
				c0-16.3-2.9-31.9-7.9-46.5L362.4,181.7z"/>
		</g>
	</g>
</g>
<g id="Capa_2">
</g>
</svg>
